<?xml version="1.0" standalone="no"?>
<!DOCTYPE svg PUBLIC "-//W3C//DTD SVG 20010904//EN"
 "http://www.w3.org/TR/2001/REC-SVG-20010904/DTD/svg10.dtd">
<svg version="1.0" xmlns="http://www.w3.org/2000/svg"
 width="900.000000pt" height="900.000000pt" viewBox="0 0 900.000000 900.000000"
 preserveAspectRatio="xMidYMid meet">
<metadata>
Created by potrace 1.14, written by Peter Selinger 2001-2017
</metadata>
<g transform="translate(0.000000,900.000000) scale(0.100000,-0.100000)"
fill="#000000" stroke="none">
<path d="M3200 7916 c-104 -28 -171 -78 -215 -157 -24 -45 -29 -66 -29 -124
-1 -122 43 -197 139 -240 39 -17 56 -31 69 -59 14 -29 22 -36 46 -36 16 0 32
-4 35 -10 3 -5 20 -10 36 -10 17 0 39 -5 50 -11 29 -15 83 6 113 44 14 17 27
29 29 27 2 -3 20 -58 41 -124 21 -65 40 -124 42 -131 4 -10 -7 -10 -53 1 -72
17 -140 18 -201 2 -103 -25 -202 -169 -304 -438 -32 -85 -66 -166 -76 -180
-18 -23 -61 -49 -130 -78 -18 -8 -37 -23 -43 -34 -9 -17 -7 -25 13 -45 23 -23
31 -24 143 -24 138 1 182 7 194 30 5 9 12 41 16 71 4 30 11 65 16 77 7 19 92
136 122 168 6 6 8 -18 5 -65 -8 -124 -49 -194 -165 -281 -29 -22 -58 -49 -64
-61 -10 -19 -8 -24 12 -41 28 -23 85 -20 217 11 103 24 116 35 114 103 -1 56
13 90 70 171 48 68 160 222 168 231 4 5 36 1 71 -8 34 -9 102 -19 150 -22 157
-10 280 46 343 157 29 51 31 62 30 145 -1 120 -15 153 -153 354 -61 90 -108
167 -104 171 4 4 53 19 108 32 55 14 162 42 239 63 l138 37 22 -21 c12 -11 37
-24 56 -27 l35 -7 -19 21 -19 22 57 0 c50 0 58 3 68 25 9 19 8 29 -6 49 -27
42 -78 49 -316 43 -302 -8 -562 -42 -684 -88 -28 -10 -51 -18 -51 -16 -1 1
-12 35 -24 75 -18 61 -31 83 -74 127 -43 44 -64 57 -121 74 -77 24 -93 25
-156 7z"/>
<path d="M4850 7660 c-40 -40 -9 -110 49 -110 70 0 333 -61 506 -116 289 -94
526 -208 785 -378 179 -118 313 -228 496 -408 108 -106 168 -158 182 -158 27
0 62 33 62 59 0 45 -220 268 -428 434 -418 334 -889 554 -1416 662 -201 41
-210 41 -236 15z"/>
<path d="M2684 7208 c-210 -132 -366 -253 -553 -434 -261 -252 -461 -521 -636
-857 -83 -159 -91 -196 -50 -223 49 -32 69 -15 135 115 170 340 339 573 614
846 185 185 311 287 506 413 150 97 160 105 160 137 0 29 -32 65 -58 65 -11 0
-63 -28 -118 -62z"/>
<path d="M5703 6766 c-32 -15 -30 -59 7 -154 52 -131 57 -138 178 -216 107
-69 119 -81 269 -257 86 -101 184 -211 217 -245 62 -61 256 -195 464 -318 61
-37 118 -77 125 -89 9 -16 12 -94 11 -297 0 -333 -14 -463 -83 -795 -71 -343
-84 -449 -78 -608 4 -123 7 -140 46 -252 56 -160 104 -362 136 -573 26 -169
27 -175 10 -219 -24 -63 -94 -128 -255 -235 -162 -107 -166 -117 -75 -165 33
-18 76 -35 96 -38 63 -11 147 11 233 62 45 25 118 66 164 90 45 25 89 55 98
68 22 34 20 102 -7 190 l-22 74 34 213 c44 279 47 464 10 576 -24 73 -24 73
-7 153 22 101 92 321 119 374 l20 40 8 -28 c12 -43 27 -333 34 -632 6 -250 9
-284 41 -457 19 -103 50 -261 70 -350 20 -90 37 -189 37 -220 1 -80 -45 -169
-137 -267 -151 -161 -166 -180 -166 -206 0 -22 9 -30 52 -50 29 -14 71 -27 94
-31 55 -8 144 11 181 39 38 27 211 233 224 265 13 33 11 104 -6 202 -11 62
-15 147 -14 310 3 326 11 422 78 850 32 212 67 442 77 512 15 114 19 127 38
130 24 4 43 37 52 93 6 40 6 40 19 15 26 -48 28 -95 6 -146 -27 -60 -27 -90 0
-105 18 -9 29 -5 73 25 28 19 67 51 86 71 33 34 35 40 39 117 2 47 -4 126 -14
188 l-17 107 46 149 c94 305 103 381 61 504 -98 288 -375 527 -732 633 -46 13
-73 26 -73 35 0 8 33 46 73 86 79 77 108 132 121 231 29 223 -220 421 -453
360 -117 -30 -168 -67 -190 -137 -8 -24 -30 -52 -62 -79 -53 -45 -57 -53 -33
-80 15 -17 15 -24 -1 -90 -22 -90 -22 -120 4 -168 10 -21 24 -55 29 -75 9 -30
8 -36 -5 -36 -33 0 -446 132 -503 160 -71 36 -429 429 -540 593 -38 57 -61 82
-75 82 -28 0 -30 -35 -6 -91 17 -37 18 -45 6 -40 -38 14 -136 89 -165 126 -34
43 -34 43 -67 26z m2279 -1507 c134 -112 158 -155 158 -283 0 -161 -28 -314
-88 -483 l-29 -82 -6 107 c-7 114 -27 235 -82 477 -55 245 -64 325 -35 325 5
0 42 -27 82 -61z"/>
<path d="M4190 6183 c-68 -10 -121 -27 -185 -59 -39 -19 -104 -41 -145 -50
-115 -23 -188 -74 -260 -179 -74 -108 -124 -288 -101 -365 12 -39 49 -70 86
-70 8 0 15 -3 16 -7 0 -5 2 -38 3 -74 4 -79 30 -133 84 -169 37 -25 38 -25
228 -22 167 3 193 1 208 -13 37 -38 11 -69 -105 -124 -52 -24 -125 -59 -164
-77 -85 -40 -136 -95 -357 -389 -213 -282 -236 -307 -326 -357 -42 -23 -135
-81 -207 -128 -205 -136 -255 -162 -333 -168 -37 -2 -79 -11 -94 -18 -15 -8
-31 -14 -37 -14 -5 0 -51 51 -102 113 -51 61 -140 162 -199 222 -58 61 -126
139 -150 175 -24 36 -66 94 -94 130 -144 186 -209 240 -315 264 -97 22 -98 33
-12 89 63 40 82 95 72 212 -1 17 1 51 4 77 5 28 2 67 -6 100 -7 29 -12 67 -10
83 4 50 -35 95 -114 135 -67 34 -74 35 -180 35 -106 0 -113 -1 -180 -35 -91
-46 -115 -80 -115 -166 0 -34 -5 -75 -11 -91 -18 -48 -2 -105 49 -173 78 -103
93 -132 87 -164 -9 -50 -46 -78 -136 -101 -119 -32 -364 -240 -424 -360 -45
-90 -43 -159 8 -242 43 -70 196 -235 280 -302 49 -39 56 -50 62 -90 17 -127
99 -405 161 -553 13 -31 24 -59 24 -62 0 -2 -35 16 -77 40 -43 24 -82 44 -88
44 -6 0 -48 18 -94 40 -45 22 -93 40 -106 40 -31 0 -42 -34 -48 -145 -3 -54
-14 -114 -26 -149 -26 -73 -26 -109 -1 -164 23 -50 76 -80 110 -62 24 13 51
64 76 143 10 31 20 56 23 55 3 -2 53 -22 111 -45 186 -74 343 -91 389 -42 58
62 72 366 26 579 -9 41 -18 89 -22 105 -3 17 21 -22 53 -86 51 -99 117 -203
220 -348 21 -29 24 -45 24 -115 0 -44 7 -136 16 -204 15 -113 15 -129 0 -194
-22 -98 -21 -131 8 -165 30 -35 60 -48 234 -103 132 -42 134 -42 175 -26 23 9
53 25 67 36 25 20 25 20 5 36 -11 9 -50 31 -87 50 -169 85 -186 131 -152 409
25 214 23 291 -14 437 -45 181 -91 298 -195 498 l-91 175 -7 205 c-6 189 -4
236 8 202 10 -27 143 -222 180 -263 46 -51 185 -164 350 -283 128 -93 139
-108 117 -161 -21 -48 -17 -61 27 -94 79 -58 154 -49 243 30 22 19 95 53 198
94 463 179 552 230 843 480 165 142 251 205 280 205 42 0 107 -61 145 -134 35
-68 35 -71 35 -195 0 -124 -1 -127 -36 -201 -20 -41 -74 -135 -122 -208 -115
-178 -122 -200 -114 -371 l6 -135 -61 -101 c-174 -284 -317 -474 -469 -621
-108 -104 -142 -121 -317 -154 -328 -64 -454 -115 -853 -348 -124 -73 -233
-132 -243 -132 -10 0 -54 16 -97 36 -136 61 -164 43 -220 -140 -17 -55 -55
-155 -84 -221 -66 -149 -87 -220 -87 -296 0 -61 18 -104 48 -116 31 -12 95 49
207 199 126 168 184 230 237 252 63 26 1010 268 1310 335 177 40 244 62 367
122 124 61 272 159 418 275 104 84 433 403 543 526 l50 58 523 -260 c287 -143
531 -267 541 -277 29 -26 51 -73 98 -213 54 -159 115 -286 182 -375 29 -38
165 -185 304 -325 138 -140 256 -265 263 -277 6 -12 11 -56 11 -99 0 -135 33
-194 109 -194 20 0 100 7 179 16 132 15 150 15 225 0 167 -33 265 -17 334 54
61 63 52 95 -31 104 -22 2 -86 9 -140 15 -79 9 -115 19 -174 47 -89 43 -211
155 -276 253 -87 132 -513 934 -606 1141 -67 148 -112 211 -246 340 -177 171
-431 363 -849 642 -137 91 -140 94 -143 132 -2 22 6 78 17 125 32 133 41 203
48 376 5 134 10 168 28 210 33 75 58 184 52 228 -3 23 -28 76 -57 124 -29 47
-50 87 -47 89 2 2 53 -12 113 -32 235 -77 425 -124 500 -124 68 0 210 79 542
299 81 54 157 103 168 109 12 6 68 18 125 27 135 20 211 55 290 135 67 66 72
90 27 118 -24 14 -32 15 -60 3 -45 -17 -158 -50 -158 -46 0 2 11 15 25 29 25
25 33 60 16 71 -5 3 -34 -5 -63 -18 -29 -13 -85 -34 -123 -47 -94 -31 -122
-46 -178 -96 -83 -74 -362 -204 -557 -259 l-94 -26 -206 104 c-353 181 -488
225 -649 213 -174 -13 -164 -14 -175 16 -17 47 8 84 80 118 35 16 68 38 74 49
14 27 12 75 -6 151 -14 61 -14 65 6 92 11 15 20 32 20 38 0 5 -23 26 -50 46
-32 23 -52 46 -56 62 -3 15 -14 54 -25 87 -11 33 -28 89 -38 125 -23 84 -34
104 -74 134 -59 44 -169 65 -267 49z m-3176 -1925 l-9 -173 -72 114 c-40 63
-73 122 -73 131 0 24 73 104 112 123 31 15 33 15 42 -3 5 -10 5 -94 0 -192z"/>
<path d="M2776 1631 c-11 -12 -16 -31 -14 -53 3 -31 10 -37 108 -90 352 -193
768 -322 1205 -374 157 -19 534 -21 685 -4 354 39 664 119 975 251 198 84 219
97 223 138 4 36 -20 71 -48 71 -9 0 -61 -21 -115 -46 -524 -245 -1089 -343
-1666 -289 -394 37 -755 142 -1124 325 -100 50 -188 90 -196 90 -9 0 -24 -9
-33 -19z"/>
</g>
</svg>
